<?xml version="1.0" encoding="UTF-8" standalone="no"?>
<!-- Created with Inkscape (http://www.inkscape.org/) -->

<svg
   width="30"
   height="30"
   viewBox="0 0 7.9375002 7.9374996"
   version="1.1"
   id="svg5"
   xmlns="http://www.w3.org/2000/svg"
   xmlns:svg="http://www.w3.org/2000/svg">
  <defs
     id="defs2" />
  <g
     style="fill:#7ac1d3;fill-opacity:1;stroke-width:0.666667"
     id="g9091"
     transform="matrix(0.39687499,0,0,0.39687499,-0.39687499,-0.39687499)">
    <path
       d="M 12,6.5 C 12,3.46243 9.53757,1 6.5,1 3.46243,1 1,3.46243 1,6.5 1,9.53757 3.46243,12 6.5,12 9.53757,12 12,9.53757 12,6.5 Z m -4.99935,0.50001 4.6e-4,2.50351 c 0,0.27614 -0.22386,0.49998 -0.5,0.49998 -0.27614,0 -0.5,-0.22384 -0.5,-0.49998 L 6.00065,7.00001 H 3.49609 c -0.27614,0 -0.5,-0.22386 -0.5,-0.5 0,-0.27614 0.22386,-0.5 0.5,-0.5 H 6.00046 L 6,3.49927 c 0,-0.27614 0.22386,-0.5 0.5,-0.5 0.27614,0 0.5,0.22386 0.5,0.5 l 4.6e-4,2.50074 h 2.50255 c 0.27614,0 0.49999,0.22386 0.49999,0.5 0,0.27614 -0.22385,0.5 -0.49999,0.5 z"
       fill="#212121"
       id="path9085"
       style="fill:#7ac1d3;fill-opacity:1;stroke-width:0.666667" />
    <path
       d="M 6.5,13 C 10.0899,13 13,10.0899 13,6.5 13,5.21136 12.625,4.0103 11.9782,3 H 17.75 C 19.5449,3 21,4.45507 21,6.25 V 13 H 16.25 C 14.4551,13 13,14.4551 13,16.25 V 21 H 6.25 C 4.45507,21 3,19.5449 3,17.75 V 11.9782 C 4.0103,12.625 5.21136,13 6.5,13 Z"
       fill="#212121"
       id="path9087"
       style="fill:#7ac1d3;fill-opacity:1;stroke-width:0.666667" />
    <path
       d="m 20.56,14.5 -6.06,6.06 v -4.31 c 0,-0.9665 0.7835,-1.75 1.75,-1.75 z"
       fill="#212121"
       id="path9089"
       style="fill:#7ac1d3;fill-opacity:1;stroke-width:0.666667" />
  </g>
</svg>
