<?xml version="1.0" encoding="UTF-8" standalone="no"?>
<!-- Created with Inkscape (http://www.inkscape.org/) -->

<svg
   width="33.762672"
   height="33.762665"
   viewBox="0 0 8.9330404 8.933038"
   version="1.1"
   id="svg5"
   xmlns="http://www.w3.org/2000/svg"
   xmlns:svg="http://www.w3.org/2000/svg">
  <defs
     id="defs2" />
  <g
     id="layer1"
     transform="translate(-126.28296,-31.021831)">
    <path
       d="m 134.65764,33.813388 v 5.02475 c 0,0.616799 -0.49993,1.116731 -1.11673,1.116731 h -5.58285 c -0.6168,0 -1.11673,-0.499932 -1.11673,-1.116731 v -5.02475 z m -3.14054,1.256323 h -1.81442 c -0.19207,0 -0.34898,0.156905 -0.34898,0.348979 0,0.192073 0.15691,0.348708 0.34898,0.348708 h 1.81442 c 0.19207,0 0.34925,-0.156906 0.34925,-0.348708 0,-0.192074 -0.1542,-0.348979 -0.34925,-0.348979 z m 3.14054,-4.04788 c 0.3084,0 0.55836,0.248884 0.55836,0.558365 v 1.116732 c 0,0.308399 -0.24888,0.558095 -0.55836,0.558095 h -7.81631 c -0.3084,0 -0.55837,-0.248884 -0.55837,-0.558095 v -1.116732 c 0,-0.308399 0.24889,-0.558365 0.55837,-0.558365 z"
       id="path8995"
       style="fill:#fdfefe;fill-opacity:0.803922;fill-rule:nonzero;stroke:none;stroke-width:0.264583" />
  </g>
</svg>
