<?xml version="1.0" encoding="UTF-8" standalone="no"?>
<!-- Created with Inkscape (http://www.inkscape.org/) -->

<svg
   width="300"
   height="300"
   viewBox="0 0 79.375 79.374996"
   version="1.1"
   id="svg5"
   xmlns="http://www.w3.org/2000/svg"
   xmlns:svg="http://www.w3.org/2000/svg">
  <defs
     id="defs2" />
  <g
     id="layer1"
     transform="translate(-108.93879,4.8928499)">
    <g
       id="g28873"
       transform="matrix(0.59753893,0,0,0.59753893,-1226.526,-617.85145)"
       style="stroke-width:1.67353">
      <rect
         style="opacity:1;fill:#e3f2f5;fill-opacity:1;stroke:none;stroke-width:0.442788;stroke-dasharray:none;stroke-opacity:1"
         id="rect50052"
         width="132.83653"
         height="132.83653"
         x="2234.9419"
         y="1025.8053" />
      <path
         id="path49997"
         style="opacity:1;fill:#7ac1d3;fill-opacity:1;stroke:none;stroke-width:0.442788;stroke-dasharray:none;stroke-opacity:1"
         d="m 2265.3252,1120.6331 a 45.574394,46.141842 0 0 0 1.0469,1.3818 45.574394,46.141842 0 0 0 2.6862,2.9678 45.574394,46.141842 0 0 0 2.9316,2.7197 45.574394,46.141842 0 0 0 3.1543,2.4505 45.574394,46.141842 0 0 0 3.3528,2.1627 45.574394,46.141842 0 0 0 3.5269,1.8588 45.574394,46.141842 0 0 0 3.6731,1.5405 45.574394,46.141842 0 0 0 3.7921,1.2102 45.574394,46.141842 0 0 0 3.8814,0.8713 45.574394,46.141842 0 0 0 3.9419,0.5255 45.574394,46.141842 0 0 0 3.9718,0.1757 45.574394,46.141842 0 0 0 3.9724,-0.1757 45.574394,46.141842 0 0 0 3.9419,-0.5255 45.574394,46.141842 0 0 0 3.8814,-0.8713 45.574394,46.141842 0 0 0 3.792,-1.2102 45.574394,46.141842 0 0 0 3.6732,-1.5405 45.574394,46.141842 0 0 0 3.5264,-1.8588 45.574394,46.141842 0 0 0 3.3532,-2.1627 45.574394,46.141842 0 0 0 3.1544,-2.4505 45.574394,46.141842 0 0 0 2.9311,-2.7197 45.574394,46.141842 0 0 0 2.6861,-2.9678 45.574394,46.141842 0 0 0 1.1989,-1.5823 64.849991,65.65995 0 0 0 -35.912,-10.9905 64.849991,65.65995 0 0 0 -36.158,11.191 z m 57.0549,-39.1129 a 20.896843,21.157919 0 0 1 -20.8969,21.1579 20.896843,21.157919 0 0 1 -20.8968,-21.1579 20.896843,21.157919 0 0 1 20.8968,-21.1579 20.896843,21.157919 0 0 1 20.8969,21.1579 z" />
    </g>
  </g>
</svg>
