<?xml version="1.0" encoding="UTF-8" standalone="no"?>
<!-- Created with Inkscape (http://www.inkscape.org/) -->

<svg
   width="190.07463"
   height="140.39111"
   viewBox="0 0 50.290579 37.145149"
   version="1.1"
   id="svg5"
   inkscape:version="1.2.1 (9c6d41e410, 2022-07-14)"
   sodipodi:docname="boxEmptyRed.svg"
   xmlns:inkscape="http://www.inkscape.org/namespaces/inkscape"
   xmlns:sodipodi="http://sodipodi.sourceforge.net/DTD/sodipodi-0.dtd"
   xmlns="http://www.w3.org/2000/svg"
   xmlns:svg="http://www.w3.org/2000/svg">
  <sodipodi:namedview
     id="namedview7"
     pagecolor="#505050"
     bordercolor="#636363"
     borderopacity="1"
     inkscape:pageshadow="0"
     inkscape:pageopacity="0"
     inkscape:pagecheckerboard="0"
     inkscape:document-units="px"
     showgrid="false"
     inkscape:showpageshadow="false"
     inkscape:zoom="1.7494346"
     inkscape:cx="218.07046"
     inkscape:cy="98.603288"
     inkscape:window-width="1920"
     inkscape:window-height="961"
     inkscape:window-x="0"
     inkscape:window-y="32"
     inkscape:window-maximized="1"
     inkscape:current-layer="layer1"
     inkscape:deskcolor="#505050" />
  <defs
     id="defs2" />
  <g
     inkscape:label="Capa 1"
     inkscape:groupmode="layer"
     id="layer1"
     transform="translate(-41.727764,-165.53931)">
    <g
       id="g15137"
       transform="matrix(0.99031573,0,0,0.99031573,-1713.7735,-1307.6716)"
       style="stroke-width:1.00978">
      <path
         id="path12302"
         style="fill:#fceeee;fill-opacity:1;stroke:none;stroke-width:0.801513;stroke-opacity:1"
         d="m 1792.0631,1487.781 -3.7688,4.0566 -0.4594,0.1008 -3.3491,-3.3833 -6.1945,2.4815 3.4582,3.589 -3.5435,4.1418 3.5848,0.049 v 13.6106 h 26.1907 l 6.2704,-2.4593 v -12.87 l 3.482,-1.4196 -3.39,-3.5739 3.4866,-4.3093 z m -4.0845,4.3429 h 0.03 l -0.8257,0.324 z" />
      <path
         style="color:#000000;fill:#eb9b9b;fill-opacity:1;stroke-width:1.33586;stroke-linecap:round;stroke-linejoin:round"
         d="m 1805.9797,1499.1521 v 3.1717"
         id="path12304" />
      <path
         id="path12306"
         style="color:#000000;fill:#eb9b9b;fill-opacity:1;stroke-width:1.00978;stroke-linecap:round;stroke-linejoin:round"
         d="m 1792.0981,1487.6179 a 0.2209585,0.2209585 0 0 0 -0.1604,0.069 l -3.8829,4.1014 -3.3962,-3.3035 a 0.2209585,0.2209585 0 0 0 -0.2331,-0.048 l -6.26,2.4066 a 0.2209585,0.2209585 0 0 0 -0.076,0.3634 l 3.4014,3.3687 -3.4178,4.0578 a 0.2209585,0.2209585 0 0 0 0.1689,0.3627 h 25.9409 a 0.2209585,0.2209585 0 0 0 0.1645,-0.073 l 3.6429,-4.0407 3.4053,3.4007 a 0.2209585,0.2209585 0 0 0 0.2374,0.049 l 6.2602,-2.4712 a 0.2209585,0.2209585 0 0 0 0.074,-0.3622 l -3.4152,-3.4086 3.4927,-4.1086 a 0.2209585,0.2209585 0 0 0 -0.1683,-0.364 z m 0.095,0.4422 h 25.2057 l -3.2495,3.8224 h -25.5756 z m -7.7418,0.8403 3.21,3.1221 -5.8174,2.2818 -3.2013,-3.1709 z m 3.6513,3.4236 h 24.98 l -5.1432,2.0173 h -19.3552 v -1.5587 a 0.2209364,0.2209364 0 0 0 -0.2206,-0.2211 0.2209364,0.2209364 0 0 0 -0.2211,0.2211 v 1.5587 h -5.183 z m 26.0951,0.038 3.2192,3.2125 -5.812,2.2938 -3.2289,-3.2236 z m -32.3051,2.4218 h 6.471 19.1202 l -3.4001,3.7713 h -25.3674 z m 26.0885,1.1867 a 0.2209364,0.2209364 0 0 0 -0.2212,0.2211 v 14.6073 a 0.2209364,0.2209364 0 0 0 0.2212,0.2204 0.2209364,0.2209364 0 0 0 0.2212,-0.2204 v -14.6073 a 0.2209364,0.2209364 0 0 0 -0.2206,-0.2211 z m 6.2706,2.1182 a 0.2209364,0.2209364 0 0 0 -0.2211,0.2211 v 11.5073 l -6.0912,2.3889 h -25.9279 v -12.245 a 0.2209364,0.2209364 0 0 0 -0.2211,-0.2211 0.2209364,0.2209364 0 0 0 -0.2211,0.2211 v 12.4663 a 0.2209585,0.2209585 0 0 0 0.2211,0.2211 h 26.1907 a 0.2209585,0.2209585 0 0 0 0.081,-0.016 l 6.2699,-2.4588 a 0.2209585,0.2209585 0 0 0 0.1404,-0.2062 v -11.6579 a 0.2209364,0.2209364 0 0 0 -0.2206,-0.2211 z m -8.2658,0.8428 a 0.2209364,0.2209364 0 0 0 -0.2211,0.2206 v 3.1719 a 0.2209364,0.2209364 0 0 0 0.2211,0.221 0.2209364,0.2209364 0 0 0 0.2204,-0.221 v -3.1719 a 0.2209364,0.2209364 0 0 0 -0.2204,-0.2206 z m -17.0925,2.0822 a 0.2209364,0.2209364 0 0 0 -0.1076,0.038 0.2209364,0.2209364 0 0 0 -0.057,0.3073 c 0,0 1.3129,1.9172 3.9555,4.0136 -2.1413,1.7917 -3.9164,2.5265 -3.9164,2.5265 a 0.2209364,0.2209364 0 0 0 -0.1201,0.2882 0.2209364,0.2209364 0 0 0 0.2884,0.1201 c 0,0 1.8713,-0.7749 4.1034,-2.6583 1.1948,0.9131 2.6388,1.8456 4.3343,2.6563 a 0.2209364,0.2209364 0 0 0 0.295,-0.1043 0.2209364,0.2209364 0 0 0 -0.1037,-0.2943 c -1.6328,-0.7807 -3.0267,-1.6745 -4.1847,-2.5518 0.8972,-0.7909 1.8391,-1.7579 2.7318,-2.9229 a 0.2209364,0.2209364 0 0 0 -0.041,-0.3099 0.2209364,0.2209364 0 0 0 -0.31,0.041 c -0.896,1.1694 -1.8406,2.1344 -2.7358,2.9176 -2.6308,-2.0704 -3.9326,-3.9718 -3.9326,-3.9718 a 0.2209364,0.2209364 0 0 0 -0.1416,-0.093 0.2209364,0.2209364 0 0 0 -0.057,0 z m 17.0922,2.2608 a 0.2209364,0.2209364 0 0 0 -0.2213,0.2204 v 0.6649 a 0.2209364,0.2209364 0 0 0 0.2213,0.2211 0.2209364,0.2209364 0 0 0 0.221,-0.2211 v -0.6649 a 0.2209364,0.2209364 0 0 0 -0.221,-0.2204 z m 0,1.8464 a 0.2209364,0.2209364 0 0 0 -0.2205,0.2211 v 1.4286 a 0.2209364,0.2209364 0 0 0 0.2205,0.2211 0.2209364,0.2209364 0 0 0 0.2211,-0.2211 v -1.4286 a 0.2209364,0.2209364 0 0 0 -0.2211,-0.2211 z" />
      <path
         style="color:#000000;fill:#eb9b9b;fill-opacity:1;stroke-width:1.33586;stroke-linecap:round;stroke-linejoin:round"
         d="m 1805.9698,1503.8981 v 1.429"
         id="path12308" />
      <path
         style="color:#000000;fill:#eb9b9b;fill-opacity:1;stroke-width:1.33586;stroke-linecap:round;stroke-linejoin:round"
         d="m 1806.0015,1502.821 v 0.6646"
         id="path12310" />
    </g>
    <g
       aria-label="Nada por aquí"
       id="text20051"
       style="font-weight:bold;font-size:6.33427px;font-family:'Blokletters Balpen';-inkscape-font-specification:'Blokletters Balpen Bold';opacity:0.711162;fill:#eb9b9b;stroke-width:1.32292;stroke-linecap:round;stroke-linejoin:round">
      <path
         d="m 42.2622,195.01321 q -0.02534,-0.076 0.0063,-0.14569 0.038,-0.0697 0.107682,-0.10768 0.019,-0.076 0.08235,-0.12669 0.06968,-0.0507 0.158357,-0.038 0.08868,0.0127 0.145688,0.0887 0.05701,0.0697 0.04434,0.15835 l -0.03801,0.32305 q 0.04434,0.14569 0.08868,0.30405 0.04434,0.15202 0.09501,0.31671 0.101348,0.33572 0.247036,0.76645 0.145689,0.42439 0.31038,0.87413 0.171025,0.4434 0.348384,0.87413 0.183694,0.43073 0.35472,0.76644 0.171025,0.33572 0.323047,0.54475 0.152023,0.2027 0.259705,0.2027 0.08868,0 0.171026,-0.2217 0.08234,-0.2217 0.158356,-0.58276 0.07601,-0.36105 0.139354,-0.81712 0.06334,-0.4624 0.114017,-0.9438 0.05701,-0.48141 0.09501,-0.94381 0.04434,-0.4624 0.06968,-0.82345 0.03167,-0.36739 0.04434,-0.58909 0.019,-0.2217 0.019,-0.22803 0.0063,-0.0887 0.07601,-0.15203 0.06968,-0.0633 0.158357,-0.057 0.09501,0.006 0.152022,0.076 0.06334,0.0697 0.05701,0.15835 0,0 -0.01267,0.24704 -0.01267,0.24704 -0.04434,0.65243 -0.03167,0.39906 -0.08235,0.91213 -0.04434,0.50675 -0.114017,1.03882 -0.06968,0.53208 -0.164691,1.04516 -0.08868,0.51307 -0.209031,0.91213 -0.114017,0.39906 -0.253371,0.6461 -0.139354,0.2407 -0.310379,0.2407 -0.164691,0 -0.361053,-0.19003 -0.190028,-0.19003 -0.399059,-0.51307 -0.202697,-0.32305 -0.411728,-0.74111 -0.209031,-0.4244 -0.405393,-0.88047 -0.190028,-0.45606 -0.354719,-0.91847 -0.164691,-0.46873 -0.291377,-0.88046 l -0.468736,3.92725 q -0.01267,0.095 -0.08235,0.15202 -0.06968,0.057 -0.158357,0.0443 -0.08868,-0.0127 -0.152022,-0.0887 -0.05701,-0.0697 -0.04434,-0.15836 l 0.589087,-4.92172 z"
         id="path21458" />
      <path
         d="m 49.400903,196.56511 q 0.247037,0.17736 0.335716,0.43706 0.01267,-0.076 0.019,-0.13302 0.01267,-0.057 0.02534,-0.10135 0.01267,-0.0507 0.01267,-0.0823 0.01267,-0.0697 0.06968,-0.10135 0.05701,-0.038 0.126685,-0.038 0.09501,0 0.171026,0.057 0.08235,0.057 0.06968,0.15202 -0.107682,0.8678 -0.221699,1.71659 -0.114017,0.84879 -0.221699,1.71659 -0.01267,0.0887 -0.08868,0.14569 -0.06968,0.057 -0.158357,0.0443 -0.08868,-0.0127 -0.145688,-0.0887 -0.05701,-0.0697 -0.04434,-0.15836 l 0.126685,-0.98815 q -0.133019,0.26604 -0.29771,0.50675 -0.158357,0.2407 -0.348385,0.42439 -0.190028,0.1837 -0.411728,0.29138 -0.221699,0.11402 -0.47507,0.12668 -0.329382,0 -0.576419,-0.12035 -0.247036,-0.11401 -0.418061,-0.32305 -0.171026,-0.20903 -0.26604,-0.49407 -0.08868,-0.29137 -0.101348,-0.63343 -0.019,-0.47507 0.107683,-0.9438 0.133019,-0.46874 0.38639,-0.83613 0.259705,-0.37372 0.646096,-0.60175 0.38639,-0.23437 0.880463,-0.23437 0.2217,0 0.424396,0.0697 0.209031,0.0633 0.373722,0.19003 z m 0.228034,0.88679 q -0.04434,0.019 -0.101348,0.019 -0.08868,-0.0127 -0.152023,-0.076 -0.06334,-0.0697 -0.05701,-0.1647 0,-0.12668 -0.07601,-0.21536 -0.06968,-0.0887 -0.177359,-0.14569 -0.107683,-0.0633 -0.234368,-0.0887 -0.120351,-0.0317 -0.228034,-0.0317 -0.399059,0 -0.703104,0.19636 -0.304045,0.19636 -0.506741,0.50674 -0.196363,0.31038 -0.291377,0.69677 -0.08868,0.38006 -0.07601,0.75378 0.01267,0.24704 0.06334,0.45607 0.05701,0.20903 0.164691,0.36105 0.107682,0.15203 0.272373,0.2407 0.164691,0.0887 0.399059,0.0887 0.228034,-0.0127 0.424396,-0.13935 0.196363,-0.12668 0.361054,-0.32938 0.171025,-0.20903 0.310379,-0.47507 0.139354,-0.26604 0.253371,-0.55108 0.114017,-0.28505 0.202696,-0.57009 0.08868,-0.28504 0.152023,-0.53208 z"
         id="path21460" />
      <path
         d="m 53.942568,196.99584 q 0.06334,-0.57009 0.126686,-1.1275 0.06334,-0.55742 0.126685,-1.1275 0.01267,-0.0887 0.06968,-0.12035 0.06334,-0.0317 0.139354,-0.0317 0.08868,0 0.164691,0.0507 0.07601,0.0443 0.06968,0.13302 0,0 -0.01267,0.19636 -0.0063,0.19003 -0.038,0.50674 -0.02534,0.31672 -0.07601,0.74111 -0.05067,0.41806 -0.13302,0.87413 l -0.354719,3.1608 q -0.01267,0.0887 -0.08235,0.14569 -0.06968,0.0633 -0.158356,0.0507 -0.08868,-0.0127 -0.152023,-0.0887 -0.05701,-0.0697 -0.04434,-0.15835 l 0.08235,-0.74111 q -0.234368,0.4434 -0.544748,0.7221 -0.310379,0.27238 -0.709438,0.26604 -0.354719,0 -0.639761,-0.12035 -0.285042,-0.12035 -0.487739,-0.33571 -0.196362,-0.2217 -0.304045,-0.52575 -0.107682,-0.30404 -0.107682,-0.6651 0,-0.43706 0.133019,-0.88046 0.139354,-0.44973 0.386391,-0.81079 0.247036,-0.36105 0.582753,-0.58908 0.34205,-0.22804 0.747443,-0.22804 0.456068,0 0.753779,0.19003 0.304045,0.19003 0.462401,0.51308 z m -0.08235,0.57008 q -0.08235,0.006 -0.152023,-0.038 -0.06968,-0.0507 -0.08868,-0.13302 -0.06968,-0.31038 -0.291377,-0.48141 -0.221699,-0.17736 -0.601756,-0.17736 -0.310379,0 -0.570084,0.19636 -0.259705,0.19637 -0.443399,0.50041 -0.183694,0.30405 -0.291376,0.67143 -0.101348,0.36106 -0.101348,0.69677 0,0.54475 0.278707,0.87413 0.285043,0.32938 0.823456,0.32938 0.278707,0.006 0.500407,-0.19636 0.228034,-0.20903 0.405393,-0.55108 0.17736,-0.34205 0.304045,-0.77911 0.13302,-0.4434 0.228035,-0.91214 z"
         id="path21462" />
      <path
         d="m 58.104181,196.56511 q 0.247037,0.17736 0.335717,0.43706 0.01267,-0.076 0.019,-0.13302 0.01267,-0.057 0.02534,-0.10135 0.01267,-0.0507 0.01267,-0.0823 0.01267,-0.0697 0.06968,-0.10135 0.05701,-0.038 0.126685,-0.038 0.09501,0 0.171026,0.057 0.08234,0.057 0.06968,0.15202 -0.107683,0.8678 -0.2217,1.71659 -0.114017,0.84879 -0.221699,1.71659 -0.01267,0.0887 -0.08868,0.14569 -0.06968,0.057 -0.158357,0.0443 -0.08868,-0.0127 -0.145688,-0.0887 -0.05701,-0.0697 -0.04434,-0.15836 l 0.126685,-0.98815 q -0.133019,0.26604 -0.29771,0.50675 -0.158357,0.2407 -0.348385,0.42439 -0.190028,0.1837 -0.411728,0.29138 -0.221699,0.11402 -0.47507,0.12668 -0.329382,0 -0.576418,-0.12035 -0.247037,-0.11401 -0.418062,-0.32305 -0.171026,-0.20903 -0.26604,-0.49407 -0.08868,-0.29137 -0.101348,-0.63343 -0.019,-0.47507 0.107683,-0.9438 0.133019,-0.46874 0.38639,-0.83613 0.259705,-0.37372 0.646096,-0.60175 0.38639,-0.23437 0.880463,-0.23437 0.2217,0 0.424396,0.0697 0.209031,0.0633 0.373722,0.19003 z m 0.228034,0.88679 q -0.04434,0.019 -0.101348,0.019 -0.08868,-0.0127 -0.152023,-0.076 -0.06334,-0.0697 -0.05701,-0.1647 0,-0.12668 -0.07601,-0.21536 -0.06968,-0.0887 -0.177359,-0.14569 -0.107683,-0.0633 -0.234368,-0.0887 -0.120351,-0.0317 -0.228034,-0.0317 -0.399059,0 -0.703104,0.19636 -0.304045,0.19636 -0.506741,0.50674 -0.196363,0.31038 -0.291377,0.69677 -0.08868,0.38006 -0.07601,0.75378 0.01267,0.24704 0.06334,0.45607 0.05701,0.20903 0.164691,0.36105 0.107682,0.15203 0.272373,0.2407 0.164691,0.0887 0.399059,0.0887 0.228034,-0.0127 0.424396,-0.13935 0.196363,-0.12668 0.361054,-0.32938 0.171025,-0.20903 0.310379,-0.47507 0.139354,-0.26604 0.253371,-0.55108 0.114017,-0.28505 0.202696,-0.57009 0.08868,-0.28504 0.152023,-0.53208 z"
         id="path21464" />
      <path
         d="m 63.564304,199.35852 q -0.019,0.0823 -0.03801,0.16469 -0.01267,0.076 -0.02534,0.15202 l -0.304045,2.63506 q -0.01267,0.076 -0.07601,0.11402 -0.05701,0.0443 -0.13302,0.0443 -0.08868,0 -0.164691,-0.0507 -0.07601,-0.0443 -0.06968,-0.13302 0,0 0.01267,-0.19636 0.01267,-0.19003 0.04434,-0.51308 0.03167,-0.32304 0.08234,-0.75377 0.05067,-0.4244 0.13302,-0.89314 l 0.367388,-3.14179 q 0.01267,-0.0887 0.08235,-0.14569 0.06968,-0.0634 0.158357,-0.0507 0.09501,0.0127 0.152022,0.0887 0.05701,0.0697 0.04434,0.15836 l -0.05701,0.50041 q 0.228033,-0.45607 0.51941,-0.73478 0.297711,-0.28504 0.677767,-0.28504 0.392725,0 0.684101,0.19003 0.291376,0.18369 0.481404,0.47507 0.190029,0.29137 0.278708,0.64609 0.09501,0.34839 0.09501,0.6841 0,0.36106 -0.101348,0.74111 -0.101348,0.37373 -0.310379,0.68411 -0.209031,0.31037 -0.525745,0.50674 -0.310379,0.19636 -0.741109,0.19636 -0.329382,0 -0.557416,-0.12669 -0.228034,-0.12668 -0.380056,-0.29771 -0.145688,-0.17736 -0.2217,-0.36105 -0.07601,-0.18369 -0.107682,-0.29771 z m 0.06968,-0.34839 q 0.02534,-0.019 0.08235,-0.0317 0.08868,-0.0127 0.158357,0.0443 0.07601,0.0507 0.09501,0.13936 0.04434,0.23436 0.158357,0.41806 0.09501,0.15836 0.259705,0.29138 0.171025,0.12668 0.443399,0.12668 0.323048,0 0.557416,-0.15836 0.234368,-0.16469 0.380056,-0.41172 0.152022,-0.24704 0.221699,-0.54475 0.07601,-0.29771 0.07601,-0.57009 0,-0.2407 -0.06334,-0.51307 -0.05701,-0.27237 -0.190028,-0.50041 -0.13302,-0.23437 -0.342051,-0.38639 -0.202697,-0.15202 -0.500407,-0.15202 -0.240702,0 -0.443399,0.18369 -0.202697,0.1837 -0.367388,0.49408 -0.164691,0.30404 -0.29771,0.71577 -0.126686,0.40539 -0.228034,0.85512 z"
         id="path21466" />
      <path
         d="m 67.700562,197.34422 q 0.02534,-0.13302 0.09501,-0.30404 0.06968,-0.17736 0.215365,-0.33572 0.152023,-0.16469 0.399059,-0.27237 0.247037,-0.11402 0.627093,-0.11402 0.38639,0 0.658764,0.16469 0.272373,0.15836 0.443399,0.41806 0.171025,0.25337 0.247036,0.58276 0.08235,0.32304 0.08235,0.65243 0,0.49407 -0.126686,0.9248 -0.126685,0.42439 -0.380056,0.74111 -0.247036,0.31038 -0.614424,0.48774 -0.361053,0.18369 -0.836124,0.18369 -0.348384,0 -0.627092,-0.12668 -0.272374,-0.12669 -0.462402,-0.34206 -0.190028,-0.22169 -0.291376,-0.50674 -0.101349,-0.28504 -0.101349,-0.60175 0,-0.29771 0.05701,-0.56375 0.06334,-0.27238 0.133019,-0.47507 0.07601,-0.20903 0.139354,-0.33572 0.06968,-0.12668 0.07601,-0.13302 0.04434,-0.0633 0.126686,-0.0697 0.08235,-0.006 0.139354,0.0253 z m 0.05067,0.35472 q -0.01267,-0.0127 -0.05701,0.0697 -0.04434,0.0823 -0.09501,0.24703 -0.04434,0.15836 -0.08235,0.38639 -0.03801,0.2217 -0.03801,0.49408 0,0.22803 0.06334,0.43706 0.06968,0.2027 0.196362,0.36106 0.13302,0.15202 0.323048,0.24703 0.196363,0.0887 0.449733,0.0887 0.380057,0 0.665099,-0.14569 0.285042,-0.14568 0.468736,-0.39906 0.190028,-0.25337 0.285042,-0.59542 0.09501,-0.34838 0.09501,-0.75377 0,-0.24071 -0.05067,-0.48141 -0.04434,-0.24704 -0.158357,-0.4434 -0.114017,-0.20269 -0.304045,-0.32305 -0.190028,-0.12668 -0.47507,-0.12668 -0.342051,0 -0.525745,0.12035 -0.183693,0.12035 -0.272373,0.26604 -0.08235,0.14569 -0.101349,0.27237 -0.01267,0.12035 -0.01267,0.12035 0,0.0887 -0.06968,0.16469 -0.06334,0.0697 -0.152023,0.0633 -0.101348,0 -0.152022,-0.0697 z"
         id="path21468" />
      <path
         d="m 71.741824,197.78129 q 0.114017,-0.26604 0.25337,-0.50675 0.139354,-0.2407 0.304045,-0.41806 0.171026,-0.18369 0.361054,-0.28504 0.196362,-0.10768 0.418062,-0.10768 0.335716,0 0.544747,0.0823 0.209031,0.0823 0.323048,0.20903 0.114016,0.12669 0.152022,0.27238 0.03801,0.14569 0.03801,0.27871 0,0.14568 -0.019,0.23436 -0.01267,0.0507 -0.02534,0.095 -0.02534,0.0887 -0.107683,0.13302 -0.08235,0.0443 -0.171025,0.0127 -0.08868,-0.0253 -0.13302,-0.10135 -0.038,-0.0823 -0.01267,-0.17103 0,0 0.019,-0.095 0.019,-0.095 -0.019,-0.20903 -0.03801,-0.11402 -0.171026,-0.2027 -0.126685,-0.095 -0.418061,-0.095 -0.190028,0 -0.361054,0.13302 -0.164691,0.12668 -0.304045,0.34205 -0.139354,0.20903 -0.259705,0.48774 -0.114017,0.2787 -0.209031,0.57641 -0.09501,0.29138 -0.164691,0.58276 -0.06968,0.29137 -0.120351,0.53841 -0.04434,0.2407 -0.07601,0.41173 -0.02534,0.17102 -0.03167,0.22803 -0.01267,0.095 -0.08235,0.13302 -0.06334,0.0443 -0.13302,0.0443 -0.08868,0 -0.164691,-0.057 -0.07601,-0.0507 -0.06334,-0.13935 0.08235,-0.89313 0.152022,-1.7736 0.06968,-0.88046 0.126686,-1.77359 0.0063,-0.095 0.07601,-0.15202 0.06968,-0.0634 0.158357,-0.057 0.09501,0.0127 0.152022,0.0823 0.06334,0.0633 0.05701,0.15836 -0.019,0.27871 -0.04434,0.55741 -0.019,0.27238 -0.04434,0.55109 z"
         id="path21470" />
      <path
         d="m 80.761804,196.56511 q 0.247037,0.17736 0.335717,0.43706 0.01267,-0.076 0.019,-0.13302 0.01267,-0.057 0.02534,-0.10135 0.01267,-0.0507 0.01267,-0.0823 0.01267,-0.0697 0.06968,-0.10135 0.05701,-0.038 0.126686,-0.038 0.09501,0 0.171025,0.057 0.08235,0.057 0.06968,0.15202 -0.107683,0.8678 -0.2217,1.71659 -0.114016,0.84879 -0.221699,1.71659 -0.01267,0.0887 -0.08868,0.14569 -0.06968,0.057 -0.158357,0.0443 -0.08868,-0.0127 -0.145688,-0.0887 -0.05701,-0.0697 -0.04434,-0.15836 l 0.126686,-0.98815 q -0.13302,0.26604 -0.297711,0.50675 -0.158357,0.2407 -0.348385,0.42439 -0.190028,0.1837 -0.411727,0.29138 -0.2217,0.11402 -0.475071,0.12668 -0.329382,0 -0.576418,-0.12035 -0.247037,-0.11401 -0.418062,-0.32305 -0.171025,-0.20903 -0.266039,-0.49407 -0.08868,-0.29137 -0.101349,-0.63343 -0.019,-0.47507 0.107683,-0.9438 0.13302,-0.46874 0.38639,-0.83613 0.259705,-0.37372 0.646096,-0.60175 0.38639,-0.23437 0.880463,-0.23437 0.2217,0 0.424397,0.0697 0.20903,0.0633 0.373721,0.19003 z m 0.228034,0.88679 q -0.04434,0.019 -0.101348,0.019 -0.08868,-0.0127 -0.152023,-0.076 -0.06334,-0.0697 -0.05701,-0.1647 0,-0.12668 -0.07601,-0.21536 -0.06968,-0.0887 -0.17736,-0.14569 -0.107682,-0.0633 -0.234368,-0.0887 -0.120351,-0.0317 -0.228034,-0.0317 -0.399059,0 -0.703104,0.19636 -0.304044,0.19636 -0.506741,0.50674 -0.196362,0.31038 -0.291377,0.69677 -0.08868,0.38006 -0.07601,0.75378 0.01267,0.24704 0.06334,0.45607 0.05701,0.20903 0.164691,0.36105 0.107683,0.15203 0.272374,0.2407 0.164691,0.0887 0.399059,0.0887 0.228033,-0.0127 0.424396,-0.13935 0.196362,-0.12668 0.361053,-0.32938 0.171025,-0.20903 0.310379,-0.47507 0.139354,-0.26604 0.253371,-0.55108 0.114017,-0.28505 0.202697,-0.57009 0.08868,-0.28504 0.152022,-0.53208 z"
         id="path21472" />
      <path
         d="m 85.081768,196.87549 q 0.019,-0.10769 0.02534,-0.1647 0.0063,-0.0633 0.0063,-0.0697 0.01267,-0.0697 0.08868,-0.10769 0.07601,-0.038 0.145688,-0.038 0.08868,0 0.152023,0.0697 0.06334,0.0633 0.05067,0.15202 -0.145688,1.37454 -0.285042,2.74274 -0.139354,1.36187 -0.285042,2.7364 l 0.291376,-0.0127 q 0.08868,-0.006 0.152022,0.057 0.06968,0.0633 0.07601,0.15202 0.0063,0.095 -0.05701,0.15836 -0.06334,0.0697 -0.152022,0.076 l -1.108498,0.057 q -0.08868,0.006 -0.158356,-0.057 -0.06968,-0.0633 -0.07601,-0.15202 -0.0063,-0.095 0.05701,-0.16469 0.06334,-0.0633 0.158357,-0.0697 l 0.367387,-0.019 0.297711,-2.79975 q -0.202697,0.41173 -0.468736,0.6841 -0.259705,0.26604 -0.601756,0.27871 -0.367387,0 -0.652429,-0.14569 -0.285043,-0.13935 -0.481405,-0.38005 -0.190028,-0.24704 -0.291376,-0.55742 -0.09501,-0.31671 -0.09501,-0.65876 0,-0.43073 0.145688,-0.85513 0.152022,-0.4244 0.411727,-0.75378 0.259705,-0.33571 0.60809,-0.53841 0.354719,-0.2027 0.760113,-0.18369 0.316713,0.0127 0.538413,0.17736 0.228033,0.16469 0.380056,0.38639 z m -0.120351,0.7031 q -0.08868,-0.0127 -0.139354,-0.0823 -0.05067,-0.076 -0.03801,-0.16469 -0.01267,-0.10768 -0.06968,-0.20903 -0.05701,-0.10135 -0.152022,-0.17736 -0.08868,-0.0823 -0.202697,-0.13302 -0.107683,-0.0507 -0.234368,-0.057 -0.304045,-0.006 -0.576419,0.1647 -0.266039,0.17102 -0.468735,0.44973 -0.196363,0.27237 -0.304045,0.60809 -0.107683,0.33571 -0.09501,0.65876 0.01267,0.24704 0.07601,0.48141 0.06334,0.23437 0.190028,0.42439 0.13302,0.1837 0.329382,0.29771 0.202697,0.10769 0.47507,0.10135 0.234368,-0.006 0.424396,-0.2407 0.190028,-0.23437 0.342051,-0.58275 0.152022,-0.34839 0.259705,-0.76012 0.107682,-0.41172 0.183694,-0.77911 z"
         id="path21474" />
      <path
         d="m 88.673288,198.45272 q -0.158356,0.35472 -0.348385,0.7031 -0.183693,0.34205 -0.399059,0.61443 -0.215365,0.26604 -0.456067,0.43073 -0.240702,0.17102 -0.500407,0.17102 -0.2217,0 -0.373722,-0.10768 -0.145689,-0.10135 -0.234368,-0.27871 -0.08868,-0.18369 -0.126686,-0.42439 -0.038,-0.24071 -0.038,-0.51308 0,-0.27871 0.03167,-0.57008 0.03167,-0.29138 0.07601,-0.57009 0.04434,-0.27871 0.101349,-0.52574 0.05701,-0.24704 0.101348,-0.43073 0.04434,-0.19003 0.07601,-0.29771 0.03167,-0.11402 0.03167,-0.11402 0.03167,-0.0887 0.107682,-0.13302 0.08235,-0.0443 0.171025,-0.019 0.08868,0.0317 0.13302,0.11401 0.04434,0.076 0.01267,0.16469 0,0 -0.03167,0.12036 -0.03167,0.11401 -0.07601,0.31037 -0.04434,0.19003 -0.101348,0.4434 -0.05701,0.25337 -0.101349,0.53208 -0.04434,0.27238 -0.07601,0.55108 -0.03167,0.27238 -0.03167,0.51308 0,0.34205 0.08234,0.55742 0.08235,0.21536 0.297711,0.21536 0.253371,0 0.487739,-0.24704 0.240702,-0.25337 0.449733,-0.62709 0.209031,-0.38005 0.380056,-0.81712 0.17736,-0.43706 0.304045,-0.81079 0.126685,-0.38005 0.196362,-0.63342 0.06968,-0.25337 0.06968,-0.25337 0.019,-0.0697 0.08235,-0.095 0.06968,-0.0317 0.139354,-0.0317 0.08868,0 0.152022,0.057 0.06968,0.0507 0.05701,0.14569 -0.09501,0.89946 -0.196363,1.7926 -0.09501,0.88679 -0.190028,1.78626 -0.01267,0.0887 -0.08234,0.14569 -0.06968,0.0633 -0.164691,0.0507 -0.08868,-0.0127 -0.152023,-0.0823 -0.05701,-0.0697 -0.04434,-0.16469 0.05067,-0.41807 0.08868,-0.83613 0.04434,-0.41806 0.09501,-0.83612 z"
         id="path21476" />
      <path
         d="m 90.263176,196.64745 q 0.01267,-0.0887 0.08235,-0.14569 0.06968,-0.0633 0.164691,-0.0507 0.08868,0.0127 0.145689,0.0887 0.06334,0.0697 0.05067,0.15836 l -0.392725,3.49018 q -0.01267,0.0887 -0.08235,0.14569 -0.06968,0.0633 -0.158357,0.0507 -0.08868,-0.0127 -0.152023,-0.0823 -0.05701,-0.0697 -0.04434,-0.1647 z m -0.019,-1.05149 q -0.08868,0.0253 -0.171025,-0.019 -0.07601,-0.0507 -0.101349,-0.13935 -0.02534,-0.0887 0.019,-0.16469 0.05067,-0.076 0.139354,-0.10135 0.335717,-0.0887 0.60809,-0.22804 0.278708,-0.13935 0.481405,-0.26604 0.234368,-0.15202 0.424396,-0.31671 0.06968,-0.0633 0.158356,-0.057 0.09502,0 0.158357,0.0697 0.06334,0.0697 0.05701,0.16469 -0.0063,0.0887 -0.07601,0.15202 -0.215365,0.1837 -0.47507,0.35472 -0.221699,0.14569 -0.532078,0.29771 -0.31038,0.15202 -0.690436,0.25337 z"
         id="path21478" />
    </g>
  </g>
</svg>
