<?xml version="1.0" encoding="UTF-8" standalone="no"?>
<!-- Created with Inkscape (http://www.inkscape.org/) -->

<svg
   width="45.67865"
   height="36.546532"
   viewBox="0 0 12.08581 9.6696028"
   version="1.1"
   id="svg5"
   xmlns="http://www.w3.org/2000/svg"
   xmlns:svg="http://www.w3.org/2000/svg">
  <defs
     id="defs2" />
  <g
     id="layer1"
     transform="translate(-92.514268,-29.403164)">
    <path
       d="m 101.73088,33.029391 h -2.870582 v 1.057486 c 0,0.749898 -0.610306,1.359934 -1.359934,1.359934 -0.749898,0 -1.359934,-0.610036 -1.359934,-1.359934 v -2.296495 l -1.225483,0.736372 c -0.364939,0.216421 -0.587582,0.61193 -0.587582,1.035032 v 0.893277 l -1.510888,0.872717 c -0.289733,0.167726 -0.389016,0.536182 -0.219126,0.825375 l 1.510888,2.617609 c 0.167726,0.288922 0.536183,0.387123 0.825375,0.221831 l 1.952656,-1.127552 h 2.579763 c 0.666847,0 1.208977,-0.542134 1.208977,-1.20871 h 0.30218 c 0.33437,0 0.60436,-0.270526 0.60436,-0.604355 v -1.20871 h 0.15149 c 0.25159,0 0.4534,-0.202895 0.4534,-0.453402 v -0.906532 c 0,-0.251589 -0.20289,-0.453131 -0.4534,-0.453131 z m 2.78966,-0.706614 -1.51089,-2.617609 c -0.16502,-0.288922 -0.53645,-0.387123 -0.8251,-0.221831 l -1.9532,1.127552 h -1.930229 c -0.224536,0 -0.44772,0.06493 -0.640605,0.183957 l -0.63249,0.394698 c -0.178547,0.10821 -0.283782,0.304071 -0.283782,0.511835 v 2.385498 c 0,0.417151 0.337887,0.755309 0.755309,0.755309 0.417421,0 0.755579,-0.338158 0.755579,-0.755309 v -1.662111 h 3.474938 c 0.58352,0 1.05775,0.473961 1.05775,1.057756 v 0.538076 l 1.51089,-0.872446 c 0.28973,-0.167726 0.38712,-0.536453 0.21913,-0.825375 z"
       id="path8863"
       style="fill:#fdfefe;fill-opacity:0.803922;stroke-width:0.264583" />
  </g>
</svg>
