<?xml version="1.0" encoding="UTF-8" standalone="no"?>
<!-- Created with Inkscape (http://www.inkscape.org/) -->

<svg
   width="37.560741"
   height="21.778418"
   viewBox="0 0 9.9379464 5.762206"
   version="1.1"
   id="svg5"
   xmlns="http://www.w3.org/2000/svg"
   xmlns:svg="http://www.w3.org/2000/svg">
  <defs
     id="defs2" />
  <path
     id="rect186962"
     style="fill:#7ac1d3;fill-opacity:1;stroke-width:1.32292;stroke-linecap:round;stroke-linejoin:round"
     d="M 3.2838033,0 A 1.4707054,1.4707054 0 0 0 2.2538105,0.421054 L 0.17689441,2.459705 a 0.59037453,0.59037453 0 0 0 0,0.842796 L 2.2538105,5.341152 a 1.4706052,1.4706052 0 0 0 1.0299928,0.421054 h 6.1129246 c 0.2996518,0 0.5412178,-0.241015 0.5412178,-0.540667 V 0.541217 C 9.9379457,0.241566 9.6963797,0 9.3967279,0 Z m 1.8821493,1.506518 c 0.077081,0 0.1541617,0.03028 0.2133488,0.08947 l 0.8606903,0.86069 0.8606903,-0.86069 c 0.1183742,-0.118375 0.306947,-0.118375 0.4253211,0 0.1183742,0.116997 0.1183742,0.306258 0,0.424633 l -0.8613785,0.86069 0.8613785,0.861378 c 0.1183742,0.118375 0.1183742,0.306259 0,0.424633 -0.1183741,0.118374 -0.3069469,0.118374 -0.4253211,0 L 6.2399917,3.306632 5.3793014,4.167322 c -0.1183742,0.118374 -0.306947,0.118374 -0.4253211,0 -0.1183742,-0.116998 -0.1183742,-0.306259 0,-0.424633 L 5.8153588,2.88131 4.9539803,2.020619 c -0.1183742,-0.118374 -0.1183742,-0.306947 0,-0.425321 0.059187,-0.05781 0.1348914,-0.08809 0.2119723,-0.08809 z" />
</svg>
