<?xml version="1.0" encoding="UTF-8" standalone="no"?>
<!-- Created with Inkscape (http://www.inkscape.org/) -->

<svg
   width="37.254269"
   height="33.76199"
   viewBox="0 0 9.8568586 8.9328594"
   version="1.1"
   id="svg5"
   xmlns="http://www.w3.org/2000/svg"
   xmlns:svg="http://www.w3.org/2000/svg">
  <defs
     id="defs2" />
  <g
     id="layer1"
     transform="translate(-110.83293,-30.03732)">
    <g
       id="g8993"
       style="fill:#fdfefe;fill-opacity:0.803922;stroke-width:8.30142"
       transform="matrix(0.03187205,0,0,0.03187205,110.83294,29.575387)">
	<path
   id="path8991"
   style="fill:#fdfefe;fill-opacity:0.803922;stroke-width:8.30142"
   d="m 48.326783,14.49337 c -10.66998,0 -19.336376,8.657396 -19.336376,19.336376 V 72.484247 H 280.27204 v -9.663626 c 0,-10.669978 -8.65727,-19.32725 -19.32725,-19.32725 H 125.63578 c 0,0 -18.32089,-29.000001 -28.990871,-29.000001 z M 19.326781,91.811497 c -10.6699889,0 -19.32725005152,8.647263 -19.32725005152,19.327253 L 19.326781,275.43863 c 0,10.66999 8.657262,19.32725 19.327251,19.32725 H 270.60841 c 10.66999,0 19.32725,-8.65726 19.32725,-19.32725 l 19.32726,-164.29988 c 0,-10.67899 -8.65727,-19.327253 -19.32726,-19.327253 z" />

	
	
</g>
  </g>
</svg>
