<?xml version="1.0" encoding="UTF-8" standalone="no"?>
<!-- Created with Inkscape (http://www.inkscape.org/) -->

<svg
   width="29.632381"
   height="19.116827"
   viewBox="0 0 7.8402345 5.0579936"
   version="1.1"
   id="svg5"
   sodipodi:docname="folderYellow.svg"
   inkscape:version="1.2.1 (9c6d41e410, 2022-07-14)"
   xmlns:inkscape="http://www.inkscape.org/namespaces/inkscape"
   xmlns:sodipodi="http://sodipodi.sourceforge.net/DTD/sodipodi-0.dtd"
   xmlns="http://www.w3.org/2000/svg"
   xmlns:svg="http://www.w3.org/2000/svg">
  <sodipodi:namedview
     id="namedview25605"
     pagecolor="#ffffff"
     bordercolor="#000000"
     borderopacity="0.25"
     inkscape:showpageshadow="2"
     inkscape:pageopacity="0.0"
     inkscape:pagecheckerboard="0"
     inkscape:deskcolor="#d1d1d1"
     showgrid="false"
     inkscape:zoom="12.345145"
     inkscape:cx="12.272031"
     inkscape:cy="9.5989153"
     inkscape:window-width="1920"
     inkscape:window-height="961"
     inkscape:window-x="0"
     inkscape:window-y="32"
     inkscape:window-maximized="1"
     inkscape:current-layer="svg5" />
  <defs
     id="defs2" />
  <path
     id="path6071"
     style="fill:#7ac1d3;fill-opacity:1;stroke:none;stroke-width:0.264583;stroke-opacity:1"
     d="M 0.87197082,0 C 0.67938064,0 0.52295322,0.156219 0.52295322,0.3489134 V 1.0463233 H 5.0575767 V 0.8723877 c 0,-0.1925902 -0.1559063,-0.3489134 -0.3484965,-0.3489134 H 2.2673117 C 2.2673117,0.5234743 1.9363234,0 1.7438374,0 Z M 0.34849653,1.3953409 C 0.15590634,1.3953409 0,1.5515599 0,1.7443585 l 0.34849653,2.9647217 c 0,0.1925902 0.1563232,0.3489134 0.34891339,0.3489134 H 4.8835369 c 0.1733103,0 0.3172319,-0.1266218 0.3442237,-0.2924286 A 1.8273226,1.8273226 0 0 1 4.4963764,3.3050894 1.8273226,1.8273226 0 0 1 5.5659398,1.6430611 C 5.5221693,1.4996606 5.3893988,1.3953409 5.2320334,1.3953409 Z M 6.3236905,1.7884416 c -0.8375798,0 -1.5165436,0.679068 -1.5165436,1.5166478 0,0.8375797 0.6789638,1.5165435 1.5165436,1.5165435 0.8375797,0 1.5165435,-0.6789638 1.5165435,-1.5165435 0,-0.8375798 -0.6789638,-1.5166478 -1.5165435,-1.5166478 z m 0,0.5509872 c 0.076077,0 0.137877,0.061487 0.137877,0.1378771 v 0.6899064 h 0.6898022 c 0.076077,0 0.1378771,0.061487 0.1378771,0.1378771 0,0.076077 -0.061487,0.1377728 -0.1378771,0.1377728 H 6.4615675 v 0.6904275 c 0,0.076077 -0.061487,0.1378771 -0.137877,0.1378771 -0.076077,0 -0.1378771,-0.061487 -0.1378771,-0.1378771 V 3.4428622 H 5.4953859 c -0.076077,0 -0.1378771,-0.061487 -0.1378771,-0.1377728 0,-0.076077 0.061487,-0.1378771 0.1378771,-0.1378771 H 6.1858134 V 2.4773059 c 0,-0.076077 0.061487,-0.1378771 0.1378771,-0.1378771 z" />
</svg>
