<?xml version="1.0" encoding="UTF-8" standalone="no"?>
<!-- Created with Inkscape (http://www.inkscape.org/) -->

<svg
   width="202.32515"
   height="40.98761"
   viewBox="0 0 53.531863 10.844638"
   version="1.1"
   id="svg5"
   xmlns="http://www.w3.org/2000/svg"
   xmlns:svg="http://www.w3.org/2000/svg">
  <defs
     id="defs2" />
  <g
     id="layer1"
     transform="translate(-77.609816,-20.24383)">
    <path
       id="path28386"
       style="fill:#ffffff;fill-opacity:0.501199;stroke-width:0.529167;stroke-linecap:round;stroke-linejoin:round"
       d="m 81.838514,20.24383 -1.489676,1.489676 1.543796,1.885333 1.182843,-0.38786 V 20.24383 Z m 3.051512,0 v 7.938059 h -1.50848 l -3.957487,-4.819585 v 4.819585 h -1.814243 v 1.562447 c 0,0.744685 0.599601,1.344133 1.34398,1.344133 h 8.15622 c 0.744685,0 1.344286,-0.599448 1.344286,-1.344133 v -8.15622 c 0,-0.744685 -0.599601,-1.344286 -1.344286,-1.344286 z m -1.814396,3.254233 -1.010393,0.331294 0.259134,0.316158 0.751259,0.9179 v -1.184678 z m 8.942489,1.263717 v 5.94739 h 0.788409 v -4.435088 l 3.310034,4.435088 h 0.646535 v -5.94739 h -0.78795 v 4.434935 l -3.31034,-4.434935 z m 11.404791,0.458644 v 0.985626 h -0.70936 v 0.671149 h 0.70936 v 2.472397 c 0,0.909033 0.48082,1.410178 1.32396,1.410178 0.33878,0 0.68567,-0.102431 0.91407,-0.314171 l -0.23528,-0.585994 c -0.15854,0.136064 -0.37058,0.211893 -0.59134,0.211893 -0.41768,0 -0.65403,-0.271823 -0.65403,-0.756151 v -2.438305 h 1.19782 v -0.671149 h -1.19782 v -0.985626 z m -3.32593,0.942972 c -1.25332,0 -2.175348,0.951839 -2.175348,2.294138 0,1.342451 0.922028,2.30224 2.175348,2.30224 1.25302,0 2.16725,-0.959789 2.16725,-2.30224 0,-1.342299 -0.91423,-2.294138 -2.16725,-2.294138 z m 8.04676,0 c -1.20593,0 -2.09631,0.960248 -2.09631,2.294138 0,1.342451 0.89833,2.30224 2.24598,2.30224 0.69377,0 1.26891,-0.254853 1.6473,-0.730467 l -0.41752,-0.526676 c -0.30745,0.365386 -0.71717,0.543646 -1.20593,0.543646 -0.8274,0 -1.41889,-0.526677 -1.51322,-1.31692 h 3.38907 c 0,-0.07644 0.026,-0.178413 0.026,-0.246292 h 3.1e-4 c 0,-1.384952 -0.8592,-2.319669 -2.06497,-2.319669 z m 4.46092,0 c -1.0717,0 -1.74193,0.543799 -1.74193,1.35086 0,1.792687 2.64042,0.917594 2.64042,1.928751 0,0.382203 -0.29155,0.611678 -0.99312,0.611678 -0.5438,0 -1.11114,-0.195382 -1.46598,-0.467358 l -0.31509,0.645771 c 0.34689,0.297354 1.03241,0.526676 1.72573,0.526676 1.11144,0 1.80507,-0.518268 1.80507,-1.33389 0,-1.750185 -2.64806,-0.883348 -2.64806,-1.945262 0,-0.356825 0.32304,-0.620545 0.98501,-0.620545 0.40972,0 0.82801,0.09326 1.20624,0.356977 l 0.32273,-0.64577 c -0.36233,-0.254854 -0.97707,-0.407888 -1.52102,-0.407888 z m 4.39014,0 c -1.25301,0 -2.17535,0.951839 -2.17535,2.294138 0,1.342451 0.92234,2.30224 2.17535,2.30224 1.25302,0 2.16725,-0.959789 2.16725,-2.30224 0,-1.342299 -0.91423,-2.294138 -2.16725,-2.294138 z m 12.41305,0 c -0.66197,0 -1.19782,0.263568 -1.50527,0.722517 V 26.20605 h -0.72496 v 4.50312 h 0.75646 v -2.319668 c 0,-0.977065 0.51995,-1.495333 1.3238,-1.495333 0.71731,0 1.12734,0.433266 1.12734,1.31692 v 2.498081 h 0.75646 v -2.591491 c 0,-1.325329 -0.71717,-1.954283 -1.73383,-1.954283 z m -9.98575,0.04281 1.55266,4.502967 h 0.72481 l 1.22198,-3.415522 1.20593,3.415522 h 0.72512 l 1.56061,-4.502967 h -0.67818 l -1.24507,3.602343 -1.23742,-3.602343 h -0.63828 l -1.26127,3.585373 -1.21388,-3.585373 z m -11.27836,0.645771 c 0.73291,0 1.26112,0.535085 1.33985,1.291236 h -2.67955 c 0.0795,-0.764713 0.61458,-1.291236 1.3397,-1.291236 z m -8.04676,0.02599 c 0.8037,0 1.40269,0.620239 1.40269,1.580334 0,0.960095 -0.59899,1.588743 -1.40269,1.588743 -0.803849,0 -1.410635,-0.628648 -1.410635,-1.588743 0,-0.960095 0.606786,-1.580334 1.410635,-1.580334 z m 16.89782,0 c 0.80401,0 1.403,0.620239 1.403,1.580334 0,0.960095 -0.59899,1.588743 -1.403,1.588743 -0.80385,0 -1.41079,-0.628648 -1.41079,-1.588743 0,-0.960095 0.60694,-1.580334 1.41079,-1.580334 z" />
  </g>
</svg>
