<?xml version="1.0" encoding="UTF-8" standalone="no"?>
<!-- Created with Inkscape (http://www.inkscape.org/) -->

<svg
   width="195.0475"
   height="39.513508"
   viewBox="0 0 51.606318 10.454616"
   version="1.1"
   id="svg5"
   xmlns="http://www.w3.org/2000/svg"
   xmlns:svg="http://www.w3.org/2000/svg">
  <defs
     id="defs2" />
  <g
     id="layer1"
     transform="translate(-215.45882,-71.771232)">
    <g
       id="g3738"
       transform="matrix(1.1044502,0,0,1.1044502,-2454.9657,-2108.4847)"
       style="stroke-width:0.905428">
      <path
         id="path3489"
         style="fill:#7ac1d3;fill-opacity:1;stroke-width:0.479123;stroke-linecap:round;stroke-linejoin:round"
         d="m 2424.2313,1974.0646 v 6.9287 h -1.3166 l -3.4544,-4.2068 v 4.2068 h -1.5835 v 1.3638 c 0,0.65 0.5233,1.1733 1.1731,1.1733 h 7.1193 c 0.65,0 1.1733,-0.5233 1.1733,-1.1733 v -7.1192 c 0,-0.65 -0.5233,-1.1733 -1.1733,-1.1733 z m 6.2219,3.9431 v 5.1913 h 0.6881 v -3.8712 l 2.8892,3.8712 h 0.5645 v -5.1913 h -0.6879 v 3.8712 l -2.8895,-3.8712 z m 9.9547,0.4007 v 0.8603 h -0.619 v 0.5858 h 0.619 v 2.158 c 0,0.7935 0.4197,1.231 1.1556,1.231 0.2959,0 0.5985,-0.089 0.7979,-0.2743 l -0.2054,-0.5118 c -0.1384,0.1186 -0.3234,0.1855 -0.5161,0.1855 -0.3646,0 -0.5709,-0.2373 -0.5709,-0.66 v -2.1283 h 1.0455 v -0.5858 h -1.0455 v -0.8604 z m -2.903,0.823 c -1.094,0 -1.8988,0.8306 -1.8988,2.0023 0,1.1717 0.8048,2.0098 1.8988,2.0098 1.0938,0 1.8916,-0.8381 1.8916,-2.0098 0,-1.1717 -0.7978,-2.0023 -1.8916,-2.0023 z m 7.0238,0 c -1.0528,0 -1.83,0.838 -1.83,2.0023 0,1.1717 0.7842,2.0098 1.9605,2.0098 0.6055,0 1.1075,-0.2224 1.4378,-0.6376 l -0.3643,-0.46 c -0.2683,0.3188 -0.6261,0.4748 -1.0527,0.4748 -0.7222,0 -1.2384,-0.4598 -1.3208,-1.1494 h 2.9581 c 0,-0.067 0.023,-0.1558 0.023,-0.2151 h 3e-4 c 0,-1.2088 -0.75,-2.0247 -1.8024,-2.0247 z m 3.8936,0 c -0.9355,0 -1.5205,0.4747 -1.5205,1.1792 0,1.5648 2.3047,0.8009 2.3047,1.6834 0,0.3337 -0.2545,0.534 -0.8668,0.534 -0.4747,0 -0.9699,-0.1705 -1.2795,-0.4079 l -0.2751,0.5637 c 0.3027,0.2595 0.9011,0.4597 1.5063,0.4597 0.9701,0 1.5755,-0.4524 1.5755,-1.1643 0,-1.5277 -2.3113,-0.7713 -2.3113,-1.6983 0,-0.3115 0.2819,-0.5412 0.8597,-0.5412 0.3577,0 0.7228,0.082 1.0529,0.3115 l 0.2818,-0.5637 c -0.3164,-0.2224 -0.8528,-0.3561 -1.3277,-0.3561 z m 3.8319,0 c -1.0937,0 -1.8987,0.8306 -1.8987,2.0023 0,1.1717 0.805,2.0098 1.8987,2.0098 1.0939,0 1.8917,-0.8381 1.8917,-2.0098 0,-1.1717 -0.7978,-2.0023 -1.8917,-2.0023 z m 10.8349,0 c -0.5778,0 -1.0456,0.2298 -1.3139,0.6304 v -0.5931 h -0.6327 v 3.9303 h 0.6602 v -2.0244 c 0,-0.8529 0.4538,-1.3053 1.1556,-1.3053 0.626,0 0.9839,0.3783 0.9839,1.1495 v 2.1802 h 0.6604 v -2.2617 c 0,-1.1569 -0.6261,-1.7059 -1.5135,-1.7059 z m -8.716,0.037 1.3551,3.9303 h 0.6328 l 1.0665,-2.9811 1.0526,2.9811 h 0.6329 l 1.3622,-3.9303 h -0.592 l -1.0868,3.1442 -1.08,-3.1442 h -0.557 l -1.1009,3.1293 -1.0597,-3.1293 z m -9.8444,0.5634 c 0.6396,0 1.1006,0.4673 1.1693,1.1274 h -2.3388 c 0.069,-0.6675 0.5365,-1.1274 1.1695,-1.1274 z m -7.0238,0.023 c 0.7015,0 1.2243,0.5412 1.2243,1.3792 0,0.838 -0.5228,1.3871 -1.2243,1.3871 -0.7017,0 -1.2313,-0.5491 -1.2313,-1.3871 0,-0.838 0.5296,-1.3792 1.2313,-1.3792 z m 14.7493,0 c 0.7018,0 1.2247,0.5412 1.2247,1.3792 0,0.838 -0.5229,1.3871 -1.2247,1.3871 -0.7016,0 -1.2314,-0.5491 -1.2314,-1.3871 0,-0.838 0.5298,-1.3792 1.2314,-1.3792 z" />
      <path
         id="path3491"
         style="fill:#1c1c1c;fill-opacity:1;stroke-width:0.479123;stroke-linecap:round;stroke-linejoin:round"
         d="m 2422.6478,1976.9051 -0.8822,0.2891 0.226,0.276 0.6562,0.8012 v -1.0341 z" />
      <path
         id="path3493"
         style="fill:#fbb954;fill-opacity:1;stroke-width:0.479123;stroke-linecap:round;stroke-linejoin:round"
         d="m 2421.5678,1974.0645 -1.3003,1.3002 1.3476,1.6456 1.0324,-0.3384 v -2.6074 z" />
    </g>
  </g>
</svg>
