<?xml version="1.0" encoding="UTF-8" standalone="no"?>
<!-- Created with Inkscape (http://www.inkscape.org/) -->

<svg
   width="5.4614902"
   height="30.428303"
   viewBox="0 0 1.4450193 8.0508214"
   version="1.1"
   id="svg5"
   xmlns="http://www.w3.org/2000/svg"
   xmlns:svg="http://www.w3.org/2000/svg">
  <defs
     id="defs2" />
  <g
     id="g8873"
     transform="matrix(0,-0.05160783,0.05160783,0,-9.5990564,16.927368)"
     style="fill:#7c8083;fill-opacity:1;stroke-width:5.12681">
	<path
   d="m 250,186 c -7.7,0 -14,6.3 -14,14 0,7.7 6.3,14 14,14 7.7,0 14,-6.3 14,-14 0,-7.7 -6.3,-14 -14,-14 z"
   id="path8867"
   style="fill:#7c8083;fill-opacity:1;stroke-width:5.12681" />

	<path
   d="m 186,186 c -7.7,0 -14,6.3 -14,14 0,7.7 6.3,14 14,14 7.7,0 14,-6.3 14,-14 0,-7.7 -6.3,-14 -14,-14 z"
   id="path8869"
   style="fill:#7c8083;fill-opacity:1;stroke-width:5.12681" />

	<path
   d="m 314,186 c -7.7,0 -14,6.3 -14,14 0,7.7 6.3,14 14,14 7.7,0 14,-6.3 14,-14 0,-7.7 -6.3,-14 -14,-14 z"
   id="path8871"
   style="fill:#7c8083;fill-opacity:1;stroke-width:5.12681" />

</g>
</svg>
