<?xml version="1.0" encoding="UTF-8" standalone="no"?>
<!-- Created with Inkscape (http://www.inkscape.org/) -->

<svg
   width="32.392715"
   height="39.385174"
   viewBox="0 0 8.5705726 10.42066"
   version="1.1"
   id="svg5"
   xmlns="http://www.w3.org/2000/svg"
   xmlns:svg="http://www.w3.org/2000/svg">
  <defs
     id="defs2" />
  <g
     id="layer1"
     transform="translate(-116.11584,-18.53942)">
    <path
       id="path8997"
       style="fill:#fdfefe;fill-opacity:0.803922;stroke:none;stroke-width:0.264583;stroke-dasharray:none;stroke-opacity:1"
       d="m 117.35236,19.048008 c 0.1569,0.420668 0.402,0.805627 0.71851,1.129717 v 2.017853 c -0.97957,0.612471 -1.67239,1.581495 -1.94156,2.690652 -0.0703,0.284052 0.14338,0.521033 0.43581,0.521033 h 3.12187 v 2.797779 c 0,0.418504 0.33654,0.755038 0.75504,0.755038 0.41851,0 0.75612,-0.336534 0.75612,-0.755038 v -2.797779 h 3.03936 c 0.29244,0 0.5048,-0.235358 0.43582,-0.521033 -0.27053,-1.110239 -0.96361,-2.079804 -1.94454,-2.692275 v -2.015418 c 0.31678,-0.324361 0.5608,-0.70959 0.71879,-1.130529 0.1028,-0.273231 -0.092,-0.508588 -0.38415,-0.508588 h -5.32693 c -0.29244,0 -0.48694,0.235357 -0.38414,0.508588 z" />
  </g>
</svg>
