<?xml version="1.0" encoding="UTF-8" standalone="no"?>
<!-- Created with Inkscape (http://www.inkscape.org/) -->

<svg
   width="38.184917"
   height="38.154903"
   viewBox="0 0 10.103093 10.095151"
   version="1.1"
   id="svg5"
   xmlns="http://www.w3.org/2000/svg"
   xmlns:svg="http://www.w3.org/2000/svg">
  <defs
     id="defs2" />
  <g
     id="layer1"
     transform="translate(-129.95066,-18.703499)">
    <path
       style="color:#000000;fill:#7ac1d3;stroke:none;stroke-width:0.264583;-inkscape-stroke:none"
       d="m 134.00669,18.703499 c -2.23136,0 -4.05603,1.804022 -4.05603,4.018708 0,2.214289 1.8209,4.016723 4.05206,4.016723 0.8642,0 1.66587,-0.272717 2.32583,-0.732406 l 2.60213,2.602325 c 0.25327,0.253068 0.68001,0.253068 0.93327,0 0.25307,-0.253265 0.25307,-0.680006 0,-0.933074 l -2.58803,-2.58982 c 0.49006,-0.664327 0.78282,-1.481287 0.78282,-2.365733 0,-2.214288 -1.82089,-4.016723 -4.05205,-4.016723 z m 0,1.332623 c 1.50351,0 2.72161,1.203607 2.72161,2.686085 0,1.482478 -1.2181,2.686086 -2.72161,2.686086 -1.50332,0 -2.72142,-1.205791 -2.72142,-2.686086 0,-1.482478 1.2179,-2.686085 2.72142,-2.686085 z"
       id="path29224" />
  </g>
</svg>
